<svg id="fe89b08f-f6e9-42a5-9663-e2d7e9e88280" data-name="Capa 2" xmlns="http://www.w3.org/2000/svg" width="33.05mm" height="42.01mm" viewBox="0 0 93.67 119.07"><defs><style>.ad91cd1e-e0f4-4c6e-90c0-54bdce9cd90e{fill:#ef626c;}</style></defs><title>pac_op2</title><path class="ad91cd1e-e0f4-4c6e-90c0-54bdce9cd90e" d="M87.11,82.1c-1.71-7.59-5.54-13.7-10.59-16.82-4.35-2.68-5-3.09-7.88-7.2a20.9,20.9,0,0,1-2.56-5.33A17.45,17.45,0,0,0,62,45.6c-4.8-4.7-14.27-6.17-20.18-.74-2.38,2.18-3.32,4.89-4.15,7.27a18.4,18.4,0,0,1-2.58,5.41c-2,2.67-4.2,3.67-6.74,4.82a28.72,28.72,0,0,0-3.85,2c-10.84,7-15,28-8,41,5.1,9.53,17.23,15.83,31.63,16.44,1.12,0,2.23.06,3.33,0,14-.25,26.07-5.83,32-15C87.73,100.26,89.1,91,87.11,82.1ZM60.42,97.49c-.07.6-.15,1.27-.23,2-.62,5.68-.72,9-.78,11a20.18,20.18,0,0,1-.12,2.13l-.07.1c-1.9,2.65-9.83,2.25-17.26.31a120.69,120.69,0,0,0-.39-13.5c-.09-1-.18-2-.26-2.76-.33-3.23-.32-3.81,0-4.41,1.28-2.06,5.68-3,11.47-2.34,2.41.25,6.44.68,7.67,2.76C60.84,93.39,60.83,94,60.42,97.49ZM77.57,103a24.35,24.35,0,0,1-11.2,8.74c0-.33,0-.68,0-1.06.06-2,.14-5.07.74-10.46.08-.72.15-1.37.22-2,.48-4.1.74-6.35-.84-9-3-5.12-9.48-5.81-13-6.18-8.87-.94-15.32,1.06-18.16,5.62-1.68,2.71-1.44,5.13-1.07,8.8.08.78.17,1.65.26,2.65A114.52,114.52,0,0,1,35,112.06c-5.64-2.23-10-5.69-12.34-10-5.16-9.62-2.11-26.86,5.61-31.81a24,24,0,0,1,3-1.5c2.83-1.28,6.35-2.88,9.44-7a24.92,24.92,0,0,0,3.6-7.31C45,52.25,45.49,51,46.51,50c2.77-2.54,8.12-1.8,10.55.58a11.19,11.19,0,0,1,2.44,4.56,28.32,28.32,0,0,0,3.4,6.93c3.69,5.3,5.27,6.27,10,9.19C76.25,73.34,79,78,80.28,83.64,81.87,90.74,80.86,98,77.57,103Z" transform="translate(-4.94 -2.76)"/><path class="ad91cd1e-e0f4-4c6e-90c0-54bdce9cd90e" d="M33.27,2.76v6c3.16,0,7.65,4.07,9.41,10.64a17.51,17.51,0,0,1-.14,10.25c-.46,1.28-1.55,3.49-3.54,4a3.57,3.57,0,0,1-.92.12c-3.16,0-7.65-4.07-9.41-10.64a17.46,17.46,0,0,1,.14-10.26c.46-1.27,1.54-3.49,3.54-4a3.57,3.57,0,0,1,.92-.12v-6m0,0a9.85,9.85,0,0,0-2.47.32C23.73,5,20.18,14.66,22.87,24.71,25.25,33.6,31.72,39.8,38.08,39.8a9.48,9.48,0,0,0,2.47-.33c7.07-1.89,10.62-11.57,7.93-21.62C46.1,9,39.63,2.76,33.27,2.76Z" transform="translate(-4.94 -2.76)"/><path class="ad91cd1e-e0f4-4c6e-90c0-54bdce9cd90e" d="M12.51,39.5c1.77,0,4.73,1.87,6.73,5.34,2.5,4.33,2,8.32.83,9a1.16,1.16,0,0,1-.62.14c-1.77,0-4.73-1.88-6.74-5.35-2.5-4.32-2-8.32-.83-9a1.26,1.26,0,0,1,.63-.13m0-6a7.18,7.18,0,0,0-3.63.94C4.21,37.13,3.6,44.82,7.52,51.6c3,5.19,7.76,8.35,11.93,8.35A7.21,7.21,0,0,0,23.07,59c4.67-2.7,5.28-10.39,1.37-17.17-3-5.19-7.77-8.34-11.93-8.34Z" transform="translate(-4.94 -2.76)"/><path class="ad91cd1e-e0f4-4c6e-90c0-54bdce9cd90e" d="M71.28,8.76a3.57,3.57,0,0,1,.92.12c2,.53,3.08,2.75,3.54,4a17.54,17.54,0,0,1,.14,10.26c-1.76,6.57-6.25,10.64-9.41,10.64a3.57,3.57,0,0,1-.92-.12C62.24,32.79,60,26.5,61.87,19.4c1.76-6.57,6.25-10.64,9.41-10.64m0-6c-6.36,0-12.83,6.2-15.21,15.09-2.69,10,.86,19.73,7.93,21.62a9.42,9.42,0,0,0,2.47.33c6.36,0,12.83-6.2,15.21-15.09,2.69-10-.86-19.73-7.93-21.63a9.91,9.91,0,0,0-2.47-.32Z" transform="translate(-4.94 -2.76)"/><path class="ad91cd1e-e0f4-4c6e-90c0-54bdce9cd90e" d="M91,40.5a1.26,1.26,0,0,1,.63.13c1.12.65,1.66,4.65-.84,9-2,3.47-5,5.35-6.73,5.35a1.16,1.16,0,0,1-.62-.14,3.12,3.12,0,0,1-.92-2.33,12,12,0,0,1,1.75-6.64c2-3.47,5-5.34,6.73-5.34m0-6c-4.17,0-8.93,3.15-11.93,8.34C75.2,49.62,75.81,57.31,80.48,60A7.21,7.21,0,0,0,84.1,61C88.27,61,93,57.79,96,52.6c3.92-6.78,3.31-14.47-1.36-17.16A7.18,7.18,0,0,0,91,34.5Z" transform="translate(-4.94 -2.76)"/></svg>