<svg id="bc8ac6b9-d796-47a4-aae9-b5c9d1a1c039" data-name="Capa 7" xmlns="http://www.w3.org/2000/svg" width="52.86mm" height="52.26mm" viewBox="0 0 149.84 148.15"><defs><style>.a166eb39-9238-4b17-a64d-bf9915ddd76f{fill:#693619;}</style></defs><title>cerrar</title><path class="a166eb39-9238-4b17-a64d-bf9915ddd76f" d="M134.1,96.46c-5-.28-10.45,1.94-12.6,3.06-4.38-4.26-13.13-13-22.78-22.64L121.4,54.21c1.35.87,8.33,5.21,16.8,3,7.59-1.93,15.45-8.83,15.28-17.82-.18-9.19-8.71-17.69-19.86-17.82.25-9.5-6.36-17.5-14.76-18.83-7.7-1.23-14.46,3.56-17.82,8.65-4.36,6.59-4.3,15.48.25,22.66l-2.64,2.59,0,0-2,2c-3.63,3.57-10.31,10.25-18,18-7.72-7.73-14.41-14.41-18-18l-2-2,0,0L55.82,34.1c4.55-7.18,4.62-16.07.26-22.66C52.71,6.35,46,1.56,38.26,2.79c-8.4,1.33-15,9.33-14.76,18.83-11.15.13-19.68,8.63-19.86,17.82-.18,9,7.68,15.89,15.27,17.82,8.47,2.16,15.46-2.18,16.8-3L58.39,76.88C48.74,86.53,40,95.26,35.62,99.52,33.47,98.4,28.05,96.18,23,96.46c-7.89.44-16.54,5.3-19,14.8C2.27,118,6.31,131.69,20.91,131.4h2.93c-1,11.65,9.48,21,20.11,19.09A19,19,0,0,0,55.66,120l22.9-22.9L101.45,120a19,19,0,0,0,11.71,30.54c10.63,1.91,21.13-7.44,20.11-19.09h2.93c14.61.29,18.65-13.36,16.9-20.14C150.64,101.76,142,96.9,134.1,96.46Z" transform="translate(-3.64 -2.59)"/></svg>