<svg id="e9584849-1d0c-42a7-b26a-68577da1a48a" data-name="Capa 8" xmlns="http://www.w3.org/2000/svg" width="91.3mm" height="82.17mm" viewBox="0 0 258.8 232.92"><defs><style>.ac8c88d1-a7fa-4e29-b0de-27d581af5b4a{fill:#f6e8ea;}</style></defs><title>correo</title><ellipse class="ac8c88d1-a7fa-4e29-b0de-27d581af5b4a" cx="188.57" cy="77.2" rx="50.4" ry="39.6" transform="translate(83.23 232.62) rotate(-85)"/><ellipse class="ac8c88d1-a7fa-4e29-b0de-27d581af5b4a" cx="97.88" cy="76.23" rx="39.76" ry="50.6" transform="translate(-18.44 -16.62) rotate(-5.14)"/><ellipse class="ac8c88d1-a7fa-4e29-b0de-27d581af5b4a" cx="240.16" cy="147.52" rx="40.8" ry="26.4" transform="translate(-19.68 256.05) rotate(-60)"/><ellipse class="ac8c88d1-a7fa-4e29-b0de-27d581af5b4a" cx="42.64" cy="143.69" rx="26.4" ry="40.8" transform="translate(-78.13 14.87) rotate(-30)"/><path class="ac8c88d1-a7fa-4e29-b0de-27d581af5b4a" d="M146.45,125.85q17.64,0,38.6,15.75,23.23,22.07,23.24,50.41,0,33-29.17,55.19a66.92,66.92,0,0,1-37.38,11.42q-36.21,0-57.58-33.11a67.25,67.25,0,0,1-9-33.5q0-32.14,27.94-54a68.35,68.35,0,0,1,32.35-12.24ZM105.08,173.1v42.6c.34,2.63,1.66,3.94,3.94,3.94H174.4q3.93-.58,3.94-3.94V173.54a4.74,4.74,0,0,0-2.33-4H107.4A4.06,4.06,0,0,0,105.08,173.1Zm4.33.44h.39q3.72,2.53,23.62,19.31,4.13,3.61,8.32,6.64,16.8-13.62,30.28-25.17l.44.77Q165,181.56,155.12,192l19.3,22.84v.85L152.35,194H152q0,1.08-10.2,10.64l-11-10.27q-10.86,11.37-22.08,21.7v-.78L128.34,192Q125.22,188.4,109.41,173.54Z" transform="translate(-12 -25.7)"/></svg>