<svg id="f53fd4bc-5fb4-46ca-92eb-9616f615e97a" data-name="Capa 7" xmlns="http://www.w3.org/2000/svg" width="91.3mm" height="81.75mm" viewBox="0 0 258.8 231.72"><defs><style>.b1e3315b-2a37-47a8-9b01-3f3bc82f999e{fill:#ffba49;}</style></defs><title>facebook</title><ellipse class="b1e3315b-2a37-47a8-9b01-3f3bc82f999e" cx="189.57" cy="77.2" rx="50.4" ry="39.6" transform="translate(83.14 233.62) rotate(-85)"/><ellipse class="b1e3315b-2a37-47a8-9b01-3f3bc82f999e" cx="98.88" cy="76.23" rx="39.76" ry="50.6" transform="matrix(1, -0.09, 0.09, 1, -19.44, -16.53)"/><ellipse class="b1e3315b-2a37-47a8-9b01-3f3bc82f999e" cx="241.16" cy="147.52" rx="40.8" ry="26.4" transform="translate(-20.18 256.92) rotate(-60)"/><ellipse class="b1e3315b-2a37-47a8-9b01-3f3bc82f999e" cx="43.64" cy="143.69" rx="26.4" ry="40.8" transform="translate(-79 15.37) rotate(-30)"/><path class="b1e3315b-2a37-47a8-9b01-3f3bc82f999e" d="M94.28,145.36A64.54,64.54,0,0,1,141.36,126q27.62,0,47.08,19.38t19.49,46.43q0,27.17-19.46,46.38t-47.08,19.24a64.76,64.76,0,0,1-47.11-19.29Q74.9,218.91,74.9,191.79T94.28,145.36Zm61.64,7.8h-3.37a53.07,53.07,0,0,0-12.82,1.17,12.34,12.34,0,0,0-8.28,6.06c-1,1.79-1.55,4.66-1.63,8.63-.15,6.22-.27,9.75-.34,10.6H121v14.1h8.85V234.4h17.47c.07,0,.11,0,.11-.13V209.46q0-9.33.35-15.74l11.54-.11c.31-2.1.58-4.32.82-6.64s.39-4.74.46-7.23a.12.12,0,0,0-.09-.12h-5.13c-1.39.07-2.4.12-3.06.12a27.62,27.62,0,0,1-4.89-.35,9.64,9.64,0,0,0,.12-1.52c0-.54,0-1.35-.12-2.45s-.11-1.9-.11-2.45a9.45,9.45,0,0,1,.23-2.43,4.23,4.23,0,0,1,.82-2,14,14,0,0,1,2-.59c.7-.07,1.56-.11,2.57-.11.62,0,1.55,0,2.79.11h4.66a.1.1,0,0,0,.12-.09V153.28Z" transform="translate(-13 -25.7)"/></svg>