<svg id="b57cb0f5-fe01-41f3-89a4-8dddb26a8905" data-name="Capa 1" xmlns="http://www.w3.org/2000/svg" viewBox="0 0 184.32 260.84"><title>gatito</title><path d="M30.48,23.91c2.66-.57.3-5-.49-7.9A23.94,23.94,0,0,0,24.24,5.85s14.38-9.14,26.53,8.92c9.14,1,21.38,3.84,30.85,13C92.21,38,91.6,48.59,100.34,62.5c6.66,10.62,12,11.64,34.2,28.8,21.63,16.7,32.45,25.06,38.7,32.76,25.46,31.37,11.6,77.14,9.9,83.34-3.11,11.29-7.29,25.71-20.34,37.08C152.15,253.75,141.31,256,123,259.6c-19.58,3.83-49.38,9.3-83.52-1.8-13.52-4.4-29.92-10-34.2-23.58-1.94-6.14-2-15.74,3.42-22.5,1.38-1.73,5.15-6.46,11-6.3,3.91.11,8.05,2.4,9.72,5.94s.39,7.43-1.62,13.5c-1.81,5.44-3,6-2.88,8.1.42,5.88,10.8,9.84,17.1,11.88,12.54,4,29.2,9.6,53.28,6.48a119.36,119.36,0,0,0,39.42-12.42l-56.34-.54c-3.57-2.24-5.56-5.93-5-9.36.77-5.19,6.87-7.07,8.46-7.56,6.7-2.07,12.6,1.64,13.68,2.34a35.35,35.35,0,0,1-13.14-16c-5.69-14.59-.14-32.85,14-46.08a23.74,23.74,0,0,1-9.18-3.78c-5.41-3.79-6.19-8-8.28-7.92-4.92.19-7.72,23.78-7.92,25.56-2.54,22.2,1.25,26.57-3.06,40.32-1.82,5.79-5.71,18.18-15.84,21.78-1.18.42-9,3.19-14-1.26-1.74-1.54-4.32-4.74-3.6-7.92,1.17-5.18,9.68-4.23,15.3-10.08,3.14-3.27,4.35-7.6,4.32-23,0-17.65-.06-26.48-2.16-35.1-6.06-24.82-17.48-24.32-18.18-43-.15-3.74-.89-23.34,10.44-31.68,2-1.5,5.82-3.65,5.4-4.86s-5,0-12.78-.54c-5.06-.36-8.74-.65-12.78-2.88a22.49,22.49,0,0,1-8.28-8.46c-1.15-2.1-1.83-3.72-1.44-5.4,1.47-6.47,3.95-2.75,5.93-5.23S25,54.55,22.37,46.23c-1.78-5.7-2.34-8.75-1.78-13.18C20.94,30.2,24.51,25.21,30.48,23.91Z" transform="translate(-4.11 -3.54)"/></svg>