<svg id="b482f7ae-4c53-4b18-a906-93ca2323f19d" data-name="bd48b7b4-ab03-41e7-ac32-9968fe215f07" xmlns="http://www.w3.org/2000/svg" width="96.55mm" height="84.07mm" viewBox="0 0 273.69 238.31"><defs><style>.af204616-4bf0-44fa-9cc2-0bdd080b658c{fill:#ef626c;}</style></defs><title>huella-rosa-rll</title><ellipse class="af204616-4bf0-44fa-9cc2-0bdd080b658c" cx="82.24" cy="50.4" rx="39.6" ry="50.4"/><ellipse class="af204616-4bf0-44fa-9cc2-0bdd080b658c" cx="185.44" cy="52.8" rx="39.6" ry="50.4"/><ellipse class="af204616-4bf0-44fa-9cc2-0bdd080b658c" cx="37.64" cy="131" rx="26.4" ry="40.8" transform="translate(-67.46 31.37) rotate(-30)"/><ellipse class="af204616-4bf0-44fa-9cc2-0bdd080b658c" cx="250.04" cy="131" rx="40.8" ry="26.4" transform="translate(4.58 277.04) rotate(-60)"/><path class="af204616-4bf0-44fa-9cc2-0bdd080b658c" d="M138.44,122.6c-45.11,1.4-81.67,46.61-76.8,81.6,2.13,15.33,13,34.38,28.8,38.4,18.08,4.6,26.19-14.67,51.6-14.4,24.79.25,32.16,18.75,49.2,14.4,16.56-4.23,27.95-26.39,28.8-44.4C221.73,162.31,182.63,121.22,138.44,122.6Z" transform="translate(-7 -5)"/></svg>