<?xml version="1.0" encoding="utf-8"?>
<!-- Generator: Adobe Illustrator 23.0.3, SVG Export Plug-In . SVG Version: 6.00 Build 0)  -->
<svg version="1.1" id="bd48b7b4-ab03-41e7-ac32-9968fe215f07"
	 xmlns="http://www.w3.org/2000/svg" xmlns:xlink="http://www.w3.org/1999/xlink" x="0px" y="0px" viewBox="0 0 273.7 238.3"
	 style="enable-background:new 0 0 273.7 238.3;" xml:space="preserve">
<style type="text/css">
	.st0{fill:#9B1532;}
</style>
<title>huella-negro</title>
<ellipse class="st0" cx="82.2" cy="50.4" rx="39.6" ry="50.4"/>
<ellipse class="st0" cx="185.4" cy="52.8" rx="39.6" ry="50.4"/>
<ellipse transform="matrix(0.866 -0.5 0.5 0.866 -58.8965 32.2016)" class="st0" cx="30.6" cy="126" rx="26.4" ry="40.8"/>
<ellipse transform="matrix(0.5 -0.866 0.866 0.5 12.4064 273.4792)" class="st0" cx="243" cy="126" rx="40.8" ry="26.4"/>
<path class="st0" d="M131.4,117.6c-45.1,1.4-81.7,46.6-76.8,81.6c2.1,15.3,13,34.4,28.8,38.4c18.1,4.6,26.2-14.7,51.6-14.4
	c24.8,0.3,32.2,18.8,49.2,14.4c16.6-4.2,27.9-26.4,28.8-44.4C214.7,157.3,175.6,116.2,131.4,117.6z"/>
</svg>
