<?xml version="1.0" encoding="utf-8"?>
<!-- Generator: Adobe Illustrator 23.0.3, SVG Export Plug-In . SVG Version: 6.00 Build 0)  -->
<svg version="1.1" id="b49ca56d-1728-4d86-82ec-fa32b0712f54"
	 xmlns="http://www.w3.org/2000/svg" xmlns:xlink="http://www.w3.org/1999/xlink" x="0px" y="0px" viewBox="0 0 273.7 236.1"
	 style="enable-background:new 0 0 273.7 236.1;" xml:space="preserve">
<style type="text/css">
	.st0{fill:#EF626C;}
</style>
<title>huella-negro-vacio</title>
<ellipse class="st0" cx="191.4" cy="50.4" rx="39.6" ry="50.4"/>
<ellipse class="st0" cx="88.2" cy="52.8" rx="39.6" ry="50.4"/>
<ellipse transform="matrix(0.5 -0.866 0.866 0.5 12.4087 273.4844)" class="st0" cx="243" cy="126" rx="40.8" ry="26.4"/>
<ellipse transform="matrix(0.866 -0.5 0.5 0.866 -58.8944 32.2007)" class="st0" cx="30.6" cy="126" rx="26.4" ry="40.8"/>
<path class="st0" d="M139.6,120.3c40.6,1.3,73.5,42,69.1,73.4c-1.9,13.8-11.7,30.9-25.9,34.6c-16.3,4.1-23.6-13.2-46.4-13
	c-22.3,0.2-28.9,16.9-44.3,13c-14.9-3.8-25.2-23.8-25.9-40C64.7,156,99.8,119,139.6,120.3z"/>
</svg>
