<?xml version="1.0" encoding="utf-8"?>
<!-- Generator: Adobe Illustrator 23.0.3, SVG Export Plug-In . SVG Version: 6.00 Build 0)  -->
<svg version="1.1" id="Capa_1" xmlns="http://www.w3.org/2000/svg" xmlns:xlink="http://www.w3.org/1999/xlink" x="0px" y="0px"
	 viewBox="0 0 20.2 10" style="enable-background:new 0 0 20.2 10;" xml:space="preserve">
<style type="text/css">
	.st0{fill:#693619;}
</style>
<title>huesito-cafe</title>
<g>
	<title>Layer 1</title>
	<path id="svg_1" class="st0" d="M19,5c1.1-1,1.2-2.6,0.4-3.7c-0.7-1-2-1.2-2.9-1c-1.2,0.2-2.1,1.2-2.4,2.5l-0.6,0v0h-0.4
		c-2.4,0-4.7,0-7.1,0C6,2.4,5.6,1.6,5.1,1.1C4.1,0.2,2.7-0.2,1.4,0.6C0.5,1.2-0.6,3.1,1,4.7L1.4,5C0,6.2,0.1,8.4,1.5,9.4
		c1.1,0.8,2.7,0.6,3.6-0.2C5.8,8.5,6,7.6,6,7.3h8.1c0.1,0.2,0.3,1.5,1.5,2.2c1,0.6,2.6,0.7,3.6-0.3C20.2,8.2,20.2,6.3,19,5z"/>
</g>
</svg>
