<?xml version="1.0" encoding="utf-8"?>
<!-- Generator: Adobe Illustrator 23.0.3, SVG Export Plug-In . SVG Version: 6.00 Build 0)  -->
<svg version="1.1" id="bb67ab9e-1940-4351-8028-25e76d009d9f"
	 xmlns="http://www.w3.org/2000/svg" xmlns:xlink="http://www.w3.org/1999/xlink" x="0px" y="0px" viewBox="0 0 268.8 136.6"
	 style="enable-background:new 0 0 268.8 136.6;" xml:space="preserve">
<style type="text/css">
	.st0{fill:#17BEBB;}
</style>
<title>huesito-rosa-contorno</title>
<path class="st0" d="M19.2,69.9C5.4,83,3.4,103.6,13.4,117.4c9.2,12.6,25.5,15.4,37.4,13c15.5-3.2,28-15.8,31.7-32.4
	c2.4,0,4.9,0,7.4,0v0.1h5.8c30.8,0.2,61.3-0.2,92.1,0.2c1.4,4.6,6,15.4,13.5,22.1c11.8,10.5,30.9,15.9,47.8,5.9
	c12.1-7.1,25.6-32.1,4.6-52.4l-4.1-4.1c17.9-15,16.3-43.1-1.4-55.4c-14.6-10.2-35.1-8.2-47.5,2.9c-9.5,8.5-11.7,19.7-12.2,23.8H82.5
	c-0.7-3.1-4.4-19.2-19.4-28.1c-13.5-8-34.3-9.4-46.8,3.6C3.6,29.9,3.6,54,19.2,69.9z"/>
</svg>
