<svg id="f9433dc6-c9dc-450a-b901-6b37d03bc359" data-name="a9a366e8-51b5-46d5-8ae6-b5c80db83c21" xmlns="http://www.w3.org/2000/svg" width="91.27mm" height="82.5mm" viewBox="0 0 258.71 233.85"><defs><style>.b09191fb-dd6b-42df-9873-f6760437c2e1{fill:#acacde;}</style></defs><title>instagram</title><path class="b09191fb-dd6b-42df-9873-f6760437c2e1" d="M129.38,99.22a67.32,67.32,0,1,0,67.31,67.32A67.32,67.32,0,0,0,129.38,99.22Zm38,82.92a21.23,21.23,0,0,1-21.23,21.24H112.82a21.24,21.24,0,0,1-21.24-21.24V150a21.24,21.24,0,0,1,21.24-21.24h33.36A21.23,21.23,0,0,1,167.41,150Z" transform="translate(-0.09 -0.01)"/><ellipse class="b09191fb-dd6b-42df-9873-f6760437c2e1" cx="176.55" cy="51.53" rx="50.4" ry="39.6" transform="translate(109.74 222.92) rotate(-85)"/><ellipse class="b09191fb-dd6b-42df-9873-f6760437c2e1" cx="85.87" cy="50.53" rx="39.76" ry="50.6" transform="translate(-4.27 7.89) rotate(-5.14)"/><ellipse class="b09191fb-dd6b-42df-9873-f6760437c2e1" cx="228.15" cy="121.86" rx="40.8" ry="26.4" transform="translate(8.46 258.51) rotate(-60)"/><ellipse class="b09191fb-dd6b-42df-9873-f6760437c2e1" cx="30.81" cy="118.6" rx="26.49" ry="40.94" transform="translate(-55.09 31.12) rotate(-29.89)"/><path class="b09191fb-dd6b-42df-9873-f6760437c2e1" d="M142.72,136.69H116a17,17,0,0,0-17,17V179.4a17,17,0,0,0,17,17h26.69a17,17,0,0,0,17-17V153.68A17,17,0,0,0,142.72,136.69Zm-13.23,47.85a17.76,17.76,0,1,1,17.76-17.76A17.76,17.76,0,0,1,129.49,184.54Zm18.12-34.67a4.08,4.08,0,1,1,4.08-4.08A4.08,4.08,0,0,1,147.61,149.87Z" transform="translate(-0.09 -0.01)"/><circle class="b09191fb-dd6b-42df-9873-f6760437c2e1" cx="129.29" cy="166.53" r="10"/></svg>