<svg id="aa832268-8b3d-4968-b52e-a7d65906d709" data-name="Capa 4" xmlns="http://www.w3.org/2000/svg" viewBox="0 0 238.31 273.68"><defs><style>.ad9d53a6-8e91-4939-b800-de3fb8ccf47e{fill:#17bebb;}.f37687a8-cc5b-4c7d-abf5-fcf87f4476fe{fill:none;stroke:#000;stroke-linecap:round;stroke-miterlimit:10;stroke-width:25px;}</style></defs><title>left</title><ellipse class="ad9d53a6-8e91-4939-b800-de3fb8ccf47e" cx="50.4" cy="191.44" rx="50.4" ry="39.6"/><ellipse class="ad9d53a6-8e91-4939-b800-de3fb8ccf47e" cx="52.8" cy="88.24" rx="50.4" ry="39.6"/><ellipse class="ad9d53a6-8e91-4939-b800-de3fb8ccf47e" cx="130.44" cy="244.53" rx="40.8" ry="26.4" transform="translate(-109.23 96.49) rotate(-30)"/><ellipse class="ad9d53a6-8e91-4939-b800-de3fb8ccf47e" cx="130.44" cy="32.13" rx="26.4" ry="40.8" transform="translate(32.95 127.54) rotate(-60)"/><path class="ad9d53a6-8e91-4939-b800-de3fb8ccf47e" d="M122,143.73c1.4,45.11,46.61,81.67,81.6,76.8,15.34-2.13,34.38-13,38.4-28.8,4.61-18.08-14.66-26.19-14.4-51.6.26-24.79,18.75-32.16,14.4-49.2-4.23-16.56-26.38-28-44.4-28.8C161.76,60.44,120.67,99.54,122,143.73Z" transform="translate(-4.44 -1.49)"/><line class="f37687a8-cc5b-4c7d-abf5-fcf87f4476fe" x1="202.8" y1="83.73" x2="148.56" y2="137.97"/><line class="f37687a8-cc5b-4c7d-abf5-fcf87f4476fe" x1="202.8" y1="192.21" x2="148.56" y2="137.97"/></svg>