<svg id="a3ae3a8f-e8d1-428b-8562-3a7507c01b6b" data-name="Capa 3" xmlns="http://www.w3.org/2000/svg" viewBox="0 0 146.35 146.32"><title>perfil</title><path d="M75.31,1.22C31.28,1.22,3.17,41,2.15,74.38c-.72,23.87,12.47,41.33,16.31,46.06,1.54,1.89,23.25,27.1,56.85,27.1a73.16,73.16,0,0,0,0-146.32Zm0,31.33A24.18,24.18,0,1,1,51.12,56.73,24.19,24.19,0,0,1,75.3,32.55Zm-.6,106.68c-28.82.13-50.8-19.9-51.9-31.5-.64-6.76,19.81-15.5,28.32-16.5C59.3,90.28,62,95.31,72.85,95c8.56-.22,9.74-3.38,16.85-3.81,12.65-.75,34.94,9,35.25,17.1C125.34,118.52,107.85,139.08,74.7,139.23Z" transform="translate(-2.12 -1.22)"/></svg>