<svg id="a5ac3e62-fdce-47f1-b04b-222a32b5183b" data-name="Capa 4" xmlns="http://www.w3.org/2000/svg" viewBox="0 0 238.31 273.68"><defs><style>.abc3e3f3-a4a5-4f7c-8a4e-71bca6b0bfdb{fill:#17bebb;}.b05f26bd-5f59-498d-83a9-27ed3301bb49{fill:none;stroke:#000;stroke-linecap:round;stroke-miterlimit:10;stroke-width:25px;}</style></defs><title>right</title><ellipse class="abc3e3f3-a4a5-4f7c-8a4e-71bca6b0bfdb" cx="187.91" cy="191.44" rx="50.4" ry="39.6"/><ellipse class="abc3e3f3-a4a5-4f7c-8a4e-71bca6b0bfdb" cx="185.51" cy="88.24" rx="50.4" ry="39.6"/><ellipse class="abc3e3f3-a4a5-4f7c-8a4e-71bca6b0bfdb" cx="123.71" cy="245.49" rx="26.4" ry="40.8" transform="translate(-162.15 227.43) rotate(-60)"/><ellipse class="abc3e3f3-a4a5-4f7c-8a4e-71bca6b0bfdb" cx="123.71" cy="33.09" rx="40.8" ry="26.4" transform="translate(-11.37 63.84) rotate(-30)"/><path class="abc3e3f3-a4a5-4f7c-8a4e-71bca6b0bfdb" d="M132.11,144.69c-1.4,45.11-46.61,81.67-81.6,76.8-15.33-2.13-34.38-13-38.4-28.8-4.6-18.08,14.67-26.19,14.4-51.6-.25-24.79-18.75-32.16-14.4-49.2,4.23-16.56,26.39-27.95,44.4-28.8C92.4,61.4,133.49,100.5,132.11,144.69Z" transform="translate(-11.4 -2.45)"/><line class="b05f26bd-5f59-498d-83a9-27ed3301bb49" x1="35.52" y1="83.73" x2="89.76" y2="137.97"/><line class="b05f26bd-5f59-498d-83a9-27ed3301bb49" x1="35.52" y1="192.21" x2="89.76" y2="137.97"/></svg>