<svg id="b9b89555-beb7-4c37-b7cd-036f01a63ab8" data-name="Capa 5" xmlns="http://www.w3.org/2000/svg" width="91.3mm" height="82.41mm" viewBox="0 0 258.8 233.59"><defs><style>.a3322b00-f4d0-4290-ba38-68a2c864829f{fill:#f6e8ea;}</style></defs><title>telefono</title><ellipse class="a3322b00-f4d0-4290-ba38-68a2c864829f" cx="189.57" cy="77.28" rx="50.4" ry="39.6" transform="translate(83.05 233.65) rotate(-85)"/><ellipse class="a3322b00-f4d0-4290-ba38-68a2c864829f" cx="98.88" cy="76.27" rx="39.76" ry="50.6" transform="translate(-19.45 -16.57) rotate(-5.14)"/><ellipse class="a3322b00-f4d0-4290-ba38-68a2c864829f" cx="241.17" cy="147.61" rx="40.8" ry="26.4" transform="translate(-20.26 256.92) rotate(-60)"/><ellipse class="a3322b00-f4d0-4290-ba38-68a2c864829f" cx="43.65" cy="143.77" rx="26.4" ry="40.8" transform="matrix(0.87, -0.5, 0.5, 0.87, -79.05, 15.34)"/><path class="a3322b00-f4d0-4290-ba38-68a2c864829f" d="M139.83,124.41h4.4q10.78,0,27.94,7.14,36.72,22.09,36.72,60.75,0,35.76-33.52,57.85-17.9,9.18-31.17,9.18H139q-10.78,0-27.15-6.77a73.6,73.6,0,0,1-20.75-15.93Q79.8,223,76.83,210.26,74.4,201,74.4,197.91v-4.45a3.34,3.34,0,0,0-.39-1.64,3.11,3.11,0,0,0,.39-1.58v-4.41q0-10.2,9.18-28.72,14.28-22,37.53-29.52Q132.74,124.39,139.83,124.41Zm-25.57,52.73.46.79a2.68,2.68,0,0,0-.46,1.18q1.44,11.58,11.63,25.57,17.51,19.53,29.52,19.52h2.43q9.93-6.88,11.57-10.78c0-1.58-2.94-4.09-8.8-7.56-2.46-2.19-4.45-3.39-6-3.62a32.24,32.24,0,0,0-6.38,4.41q-5.58,0-16.32-16.37l-1.23-4q5.1-4.35,5.1-6.37-5.73-14.59-7.14-15.59h-1.57q-2.83,0-12,10Z" transform="translate(-13.01 -25.74)"/></svg>