<svg id="accf4921-ced7-4b69-9842-0a30d3a80225" data-name="Capa 4" xmlns="http://www.w3.org/2000/svg" width="91.3mm" height="82.49mm" viewBox="0 0 258.8 233.82"><defs><style>.b3cdcc06-9923-43fc-97d3-6c178d985c5a{fill:#8e94f2;}</style></defs><title>twitter</title><ellipse class="b3cdcc06-9923-43fc-97d3-6c178d985c5a" cx="188.57" cy="77.28" rx="50.4" ry="39.6" transform="translate(83.14 232.65) rotate(-85)"/><ellipse class="b3cdcc06-9923-43fc-97d3-6c178d985c5a" cx="97.88" cy="76.27" rx="39.76" ry="50.6" transform="translate(-18.45 -16.66) rotate(-5.14)"/><ellipse class="b3cdcc06-9923-43fc-97d3-6c178d985c5a" cx="240.17" cy="147.61" rx="40.8" ry="26.4" transform="translate(-19.76 256.05) rotate(-60)"/><ellipse class="b3cdcc06-9923-43fc-97d3-6c178d985c5a" cx="42.65" cy="143.77" rx="26.4" ry="40.8" transform="matrix(0.87, -0.5, 0.5, 0.87, -78.18, 14.84)"/><path class="b3cdcc06-9923-43fc-97d3-6c178d985c5a" d="M93.6,145.85q19.65-19.42,47.66-19.42T189,145.88q19.8,19.58,19.8,47.11T189,240q-19.69,19.56-47.7,19.57T93.6,240q-19.8-19.46-19.81-47T93.6,145.85Zm95.51,20.86a32.34,32.34,0,0,1-10.2,2.82l.47-.35a18.9,18.9,0,0,0,7.38-9.61,44,44,0,0,1-9.84,3.86l-1.64.47a12.1,12.1,0,0,0-2.46-2.11,17.85,17.85,0,0,0-10.2-3.75h-1.76A18.59,18.59,0,0,0,147.39,165a17.2,17.2,0,0,0-4.1,11.13,22.57,22.57,0,0,0,.47,4.57Q121,179,105.9,161.44a15.75,15.75,0,0,0-2.69,8.79,18.2,18.2,0,0,0,.94,5.62,18.49,18.49,0,0,0,7.26,10.08,18.38,18.38,0,0,1-8.2-2.22q.83,14.41,14.65,18.16a10.51,10.51,0,0,1-4.22.82,18,18,0,0,1-3.87-.47q4.11,11.84,17,12.78c0,.15-.33.46-1,.93a36.24,36.24,0,0,1-21.45,6.92,41.33,41.33,0,0,1-4.45-.24,50.58,50.58,0,0,0,27.42,8.21q15.94,0,28.24-7.5A51,51,0,0,0,173,204.92a51.69,51.69,0,0,0,7.14-26.37v-2.12a24.75,24.75,0,0,1,2.46-2.23,31.79,31.79,0,0,0,6.48-7.49Z" transform="translate(-12.01 -25.74)"/></svg>