<svg id="b0a00bad-ec70-4f8e-9ff8-c3a6f32f438e" data-name="Capa 3" xmlns="http://www.w3.org/2000/svg" width="91.3mm" height="82.5mm" viewBox="0 0 258.8 233.85"><defs><style>.ef4c9e4f-2d53-4c24-9b21-e78f42b4db05{fill:#f6e8ea;}</style></defs><title>ubicacion</title><ellipse class="ef4c9e4f-2d53-4c24-9b21-e78f42b4db05" cx="188.57" cy="76.29" rx="50.4" ry="39.6" transform="translate(84.13 232.7) rotate(-85)"/><ellipse class="ef4c9e4f-2d53-4c24-9b21-e78f42b4db05" cx="97.88" cy="75.32" rx="39.76" ry="50.6" transform="matrix(1, -0.09, 0.09, 1, -18.36, -15.71)"/><ellipse class="ef4c9e4f-2d53-4c24-9b21-e78f42b4db05" cx="240.16" cy="146.61" rx="40.8" ry="26.4" transform="translate(-18.89 256.5) rotate(-60)"/><ellipse class="ef4c9e4f-2d53-4c24-9b21-e78f42b4db05" cx="42.64" cy="142.77" rx="26.4" ry="40.8" transform="translate(-77.67 15.66) rotate(-30)"/><path class="ef4c9e4f-2d53-4c24-9b21-e78f42b4db05" d="M136.87,125.57h9q14.92,0,34.28,12.24,11.22,8.9,17.34,18.13,10.2,18.65,10.26,31.11v10.2q-.71,13.11-9.42,29.58-12.63,20.11-38.64,29a117.62,117.62,0,0,1-17,2.78,2.53,2.53,0,0,0-1.17-.38l-.76.38Q122.14,257,114,252.3q-23.55-11.09-33.49-34.21a62,62,0,0,1-5.49-26q0-36.54,33.88-58.28Q125.71,125.57,136.87,125.57Zm-20.46,58.25V187q0,13.26,19.69,35.05,5.61,4.47,7.87,4.71,9.67-2.56,23.24-25.62,4.31-9.87,4.32-16.14,0-12.39-11.42-22.44-7.81-5.49-15-5.49H142q-7.47.8-15.75,6.33Q116.42,174,116.41,183.82Zm28-15.75q11,0,15.75,13a33,33,0,0,1,.38,4.33q0,9.42-10.65,15a14.45,14.45,0,0,1-3.55.78H142q-7.54,0-13.74-10.2L127,185q1.62-8.65,3.16-8.65,2.26,4.71,5.56,4.71h1.54c3.92-1,5.87-2.94,5.87-5.87v-1.23c0-1.12-.89-2.81-2.7-5.1a11.55,11.55,0,0,1,3.94-.77Z" transform="translate(-12 -24.79)"/></svg>