<svg id="b255fd37-af5d-4cf1-a631-c895ad3ed8d2" data-name="Capa 2" xmlns="http://www.w3.org/2000/svg" width="91.3mm" height="82.26mm" viewBox="0 0 258.81 233.19"><defs><style>.bcfeef6a-8cec-48b2-9c47-bb433cc41f5a{fill:#169873;}</style></defs><title>w</title><ellipse class="bcfeef6a-8cec-48b2-9c47-bb433cc41f5a" cx="188" cy="76.44" rx="50.4" ry="39.6" transform="translate(84.03 232.12) rotate(-85)"/><ellipse class="bcfeef6a-8cec-48b2-9c47-bb433cc41f5a" cx="97.31" cy="75.47" rx="39.76" ry="50.6" transform="translate(-17.8 -15.91) rotate(-5.14)"/><ellipse class="bcfeef6a-8cec-48b2-9c47-bb433cc41f5a" cx="239.6" cy="146.76" rx="40.8" ry="26.4" transform="translate(-18.73 255.94) rotate(-60)"/><ellipse class="bcfeef6a-8cec-48b2-9c47-bb433cc41f5a" cx="42.07" cy="142.93" rx="26.4" ry="40.8" transform="translate(-77.26 15.25) rotate(-30)"/><path class="bcfeef6a-8cec-48b2-9c47-bb433cc41f5a" d="M142.09,125.22h.38q25.17,0,47,20Q208.31,166,208.32,191.9q0,35.64-32.93,57.19a66.73,66.73,0,0,1-33.3,9Q107,258.13,84.83,226q-9.42-17.76-9.42-34.08,0-33.66,30.21-55.71Q123.42,125.23,142.09,125.22Zm-31,62.74v5.1q0,5.82,4.32,14.46-2.78,11-4.71,16.92a.34.34,0,0,1,.39.27v.1l16.45-4.32h.81q9.75,3.94,15.3,3.95h1.55q14.28,0,25.5-12.24a35.22,35.22,0,0,0,7.81-21.94q0-20.14-20.33-31A34.9,34.9,0,0,0,146.78,157h-3.49q-20.91,0-31,23.46A62.07,62.07,0,0,0,111.11,188Zm34.08-25.5q17.75,0,26.26,18.84a30.79,30.79,0,0,1,1.55,9.75.34.34,0,0,1-.27.39h-.11c0,.29.13.45.38.45q0,12.86-14.45,23.46-8,3.54-13.75,3.55-6.59,0-15.69-4.33H128l-7.49,2h-.77l-.78-.38a94.11,94.11,0,0,0,2.39-9.81q-4.71-8.46-4.71-12.91V188.7q0-13.81,16.07-23.95A36.94,36.94,0,0,1,145.19,162.46Zm-17.63,20.4q0,9.75,16.08,20.79,6.84,3.06,8.59,3.06h2.38q7-1.68,7-5.88v-1.94q-.19-1.21-7.81-3.93h-.78l-4.29,4.36a24.62,24.62,0,0,1-12.59-11V188q2.77-3.35,2.77-4.71-2.7-8.26-4.71-8.26h-1.16Q127.57,176.42,127.56,182.86Z" transform="translate(-11.43 -24.94)"/></svg>