<svg id="bd60072c-af47-48c8-b393-06f077c463c1" data-name="be2abc2a-bebd-4270-9444-88078bd53ad0" xmlns="http://www.w3.org/2000/svg" width="91.3mm" height="82.47mm" viewBox="0 0 258.8 233.79"><defs><style>.e8dd55b0-9c36-4680-a829-d57deae95f8d{fill:#ef626c;}</style></defs><title>youtube</title><ellipse class="e8dd55b0-9c36-4680-a829-d57deae95f8d" cx="188.9" cy="76.24" rx="50.4" ry="39.6" transform="translate(84.14 233.07) rotate(-85)"/><ellipse class="e8dd55b0-9c36-4680-a829-d57deae95f8d" cx="98.21" cy="75.23" rx="39.76" ry="50.6" transform="translate(-18.69 -15.6) rotate(-5.14)"/><ellipse class="e8dd55b0-9c36-4680-a829-d57deae95f8d" cx="240.5" cy="146.58" rx="40.8" ry="26.4" transform="translate(-19.03 256.86) rotate(-60)"/><ellipse class="e8dd55b0-9c36-4680-a829-d57deae95f8d" cx="42.98" cy="142.73" rx="26.4" ry="40.8" transform="matrix(0.87, -0.5, 0.5, 0.87, -77.95, 15.91)"/><path class="e8dd55b0-9c36-4680-a829-d57deae95f8d" d="M93.29,144.79q19.78-19.55,47.8-19.55t47.84,19.55q19.68,19.44,19.68,47.08t-19.68,47.07q-19.77,19.56-47.79,19.55t-47.8-19.55Q73.5,219.4,73.49,191.87T93.29,144.79Zm95,49q0-20.76-3.26-25.95-2.9-4.83-24.86-5.8-8.58-.36-15.21-.36c-2.66,0-5.08,0-7.24.12q-2.16.12-7.25.12c-3.38,0-6,0-7.72.12q-12.18.6-13.76,1-10.14,2.53-10.14,30.29,0,21.27,4,26.08,3.39,4.23,19,4.82,13,.51,23.66.49,8.94,0,16.18-.37,16-.72,18.34-1.56,8.25-3.28,8.25-29Zm-29.81-1.69q-4.23,2.43-11.95,6.39-8.7,4.47-12,6.28l.12-.6q0-4.59-.36-24.51,4,1.93,12.07,6.28,7.89,4.13,12.11,6.17Z" transform="translate(-12.34 -24.71)"/></svg>